<?xml version="1.0" ?><svg viewBox="0 0 64 64" xmlns="http://www.w3.org/2000/svg"><title/><g data-name="Medal" id="Medal-2"><path d="M33.748,28.27a2,2,0,0,0-3.496,0l-3.294,5.9253-6.6528,1.3018a2,2,0,0,0-1.0806,3.3247l4.6172,4.9638-.8179,6.73A2,2,0,0,0,25.8525,52.57L32,49.7124,38.1475,52.57a2,2,0,0,0,2.8286-2.0547l-.8179-6.7295,4.6167-4.9638a1.9995,1.9995,0,0,0-1.08-3.3247L37.042,34.1953Zm4.9454,14.1533a1.9964,1.9964,0,0,0-.52,1.6036l.8173,6.7294-6.1474-2.8579a1.9988,1.9988,0,0,0-1.6856,0l-6.1479,2.8574.8178-6.729a1.9968,1.9968,0,0,0-.5205-1.604L20.689,37.46l6.6528-1.3018a1.9953,1.9953,0,0,0,1.3643-.9912l3.291-5.93L32,29.2417l3.2939,5.9253a1.9953,1.9953,0,0,0,1.3643.9912L43.3105,37.46Z"/><path d="M54.8506,2.4741A1,1,0,0,0,54,2H38a1,1,0,0,0-.8945.5527L32,12.7637,26.8945,2.5527A1,1,0,0,0,26,2H10a1,1,0,0,0-.8945,1.4473L19.2909,23.8181a5.5155,5.5155,0,0,0-.5516,1.1521,3.5529,3.5529,0,0,1-2.272,2.27,5.5727,5.5727,0,0,0-3.8374,5.3,5.8643,5.8643,0,0,0,.1181,1.12,3.8756,3.8756,0,0,1,.0718.74,3.5676,3.5676,0,0,1-.9038,2.3823,5.5888,5.5888,0,0,0-.0014,7.4341A3.5686,3.5686,0,0,1,12.82,46.6a3.87,3.87,0,0,1-.0718.74,5.8814,5.8814,0,0,0-.1181,1.12,5.5736,5.5736,0,0,0,3.84,5.3007,3.5518,3.5518,0,0,1,2.27,2.272,5.5727,5.5727,0,0,0,5.3,3.8374,5.8643,5.8643,0,0,0,1.12-.1181,3.6373,3.6373,0,0,1,3.1225.832,5.5888,5.5888,0,0,0,7.4341.0014A3.6438,3.6438,0,0,1,38.84,59.752a5.8732,5.8732,0,0,0,1.12.1181,5.5736,5.5736,0,0,0,5.3007-3.84,3.5518,3.5518,0,0,1,2.272-2.27,5.5727,5.5727,0,0,0,3.8374-5.3,5.8814,5.8814,0,0,0-.1181-1.12,3.87,3.87,0,0,1-.0718-.74,3.57,3.57,0,0,1,.9038-2.3823,5.5888,5.5888,0,0,0,.0014-7.4341A3.5686,3.5686,0,0,1,51.18,34.4a3.8665,3.8665,0,0,1,.0718-.74,5.8732,5.8732,0,0,0,.1181-1.12,5.5736,5.5736,0,0,0-3.84-5.3007,3.5509,3.5509,0,0,1-2.2691-2.27,5.5231,5.5231,0,0,0-.5516-1.1511L54.8945,3.4473A1.0013,1.0013,0,0,0,54.8506,2.4741ZM11.6182,4H25.3818l5.5,11-2.7676,5.5352a3.372,3.372,0,0,1-.3292.2261c-.0919.0574-.1788.1224-.2757.1708a3.5428,3.5428,0,0,1-.4467.172c-.0992.0337-.1941.0779-.2963.103a3.6966,3.6966,0,0,1-.5068.0722c-.0964.01-.19.033-.2876.0353a3.7461,3.7461,0,0,1-.8117-.0666,5.8732,5.8732,0,0,0-1.12-.1181,5.4528,5.4528,0,0,0-.7921.0649c-.0722.0106-.1432.0242-.2149.0376a5.5825,5.5825,0,0,0-.62.1533c-.0534.0165-.1076.0292-.1606.0473a5.6764,5.6764,0,0,0-.7169.3022c-.0577.0291-.1123.0631-.1691.0942a5.6821,5.6821,0,0,0-.5183.3212c-.038.0265-.0805.0456-.1178.073ZM46.9067,29.14a3.5767,3.5767,0,0,1,2.4634,3.4,3.9053,3.9053,0,0,1-.082.74A5.8964,5.8964,0,0,0,49.18,34.4a5.5682,5.5682,0,0,0,1.4155,3.7183,3.5888,3.5888,0,0,1,0,4.7636l-.0015.0015A5.5675,5.5675,0,0,0,49.18,46.6a5.8943,5.8943,0,0,0,.1079,1.12,3.9186,3.9186,0,0,1,.082.74,3.5757,3.5757,0,0,1-2.46,3.3994A5.5546,5.5546,0,0,0,43.36,55.4067a3.5767,3.5767,0,0,1-3.4,2.4634,3.9053,3.9053,0,0,1-.74-.082,5.653,5.653,0,0,0-4.8384,1.3076,3.6792,3.6792,0,0,1-4.7651-.0015A5.5675,5.5675,0,0,0,25.9,57.68a5.9126,5.9126,0,0,0-1.1206.1079,3.8963,3.8963,0,0,1-.7393.082,3.5757,3.5757,0,0,1-3.3994-2.46A5.5546,5.5546,0,0,0,17.0933,51.86a3.5767,3.5767,0,0,1-2.4634-3.4,3.9186,3.9186,0,0,1,.082-.74A5.8943,5.8943,0,0,0,14.82,46.6a5.5682,5.5682,0,0,0-1.4155-3.7183,3.5886,3.5886,0,0,1,.0015-4.7651A5.5675,5.5675,0,0,0,14.82,34.4a5.9055,5.9055,0,0,0-.1079-1.1206,3.8963,3.8963,0,0,1-.082-.7393,3.5757,3.5757,0,0,1,2.46-3.3994,5.5573,5.5573,0,0,0,3.55-3.55A3.5808,3.5808,0,0,1,24.04,23.13a3.9053,3.9053,0,0,1,.74.082,5.7567,5.7567,0,0,0,1.2935.1021c.0155-.0006.0306-.0036.0461-.0042a5.6979,5.6979,0,0,0,.5923-.0535c.0249-.0036.049-.011.0739-.015.1849-.03.3686-.0648.5489-.1123.0507-.0133.099-.0335.1493-.0482.1525-.0447.305-.09.4527-.1471.0684-.0265.1329-.0615.2-.0907.1258-.0546.2528-.1068.3741-.1706.0819-.0431.1583-.0957.2379-.1429.1013-.06.205-.116.3024-.1828.0943-.0645.1815-.1395.2717-.21.0736-.0577.1511-.11.2216-.1716l.0093-.0073c.022-.0166.0435-.0346.0645-.0532a3.704,3.704,0,0,1,4.239-.3827,3.247,3.247,0,0,1,.5246.3827,5.6063,5.6063,0,0,0,4.8389,1.3076,3.8963,3.8963,0,0,1,.7393-.082,3.5827,3.5827,0,0,1,3.3994,2.46A5.5551,5.5551,0,0,0,46.9067,29.14ZM43.27,22.2236c-.0346-.0254-.0742-.0432-.1094-.0678a5.6369,5.6369,0,0,0-.5352-.3316c-.0529-.0289-.1037-.0605-.1575-.0876a5.6635,5.6635,0,0,0-.7214-.3043c-.0515-.0176-.1042-.03-.1561-.0458a5.5958,5.5958,0,0,0-.6238-.1542c-.0716-.0134-.1422-.0269-.2143-.0375A5.4555,5.4555,0,0,0,39.96,21.13a5.899,5.899,0,0,0-1.13.12,3.5978,3.5978,0,0,1-3.1123-.834,5.3475,5.3475,0,0,0-.7037-.5228c-.0714-.046-.1419-.0913-.2151-.1339a5.6217,5.6217,0,0,0-.7025-.3439c-.1039-.042-.21-.0743-.3168-.11q-.2679-.09-.5429-.1519c-.0991-.0225-.1955-.0508-.2961-.0679a5.6913,5.6913,0,0,0-.81-.0737C32.0867,19.0109,32.0443,19,32,19c-.0387,0-.0759.0095-.1144.01a5.4661,5.4661,0,0,0-.805.0649l1.8139-3.6279L38.6182,4H52.3818Z"/></g></svg>